<svg xmlns="http://www.w3.org/2000/svg" viewBox="0 0 32 40" version="1.1" x="0px" y="0px">
    <g stroke="none" stroke-width="1" fill="none" fill-rule="evenodd">
        <g fill="#000000">
            <path d="M16,2 C8.26791667,2 2,8.26791667 2,16 C2,23.7320833 8.26791667,30 16,30 C23.7320833,30 30,23.7320833 30,16 C30,8.26791667 23.7320833,2 16,2 L16,2 Z M22.8903333,13.9151667 L15.4125833,21.3935 C14.5043333,22.3011667 13.0664167,22.34725 12.2159167,21.49675 C12.094,21.3748333 11.9954167,21.2389167 11.9108333,21.0954167 L8.85416667,18.0399167 C7.94591667,17.1316667 7.89983333,15.6943333 8.75033333,14.8438333 C9.60141667,13.9939167 11.0399167,14.0394167 11.947,14.9476667 L13.8101667,16.8108333 L19.7969167,10.8229167 C20.70575,9.91525 22.1430833,9.86916667 22.993,10.7196667 C23.8440833,11.569 23.7974167,13.0080833 22.8903333,13.9151667 L22.8903333,13.9151667 Z"/>
        </g>
    </g>
</svg>