<svg xmlns="http://www.w3.org/2000/svg" version="1.1" viewBox="0 0 64 64" x="0px" y="0px">
    <path d="M32 0c-17.673 0-32 14.327-32 32v0c0 17.673 14.327 32 32 32v0c17.673 0 32-14.327 32-32v0c0-17.673-14.327-32-32-32v0zM31.391 15.5c3.874 0 6.374 0.499 9.25 2.875 0.876 0.876 1.875 2.125 2.375 3.375 1.5 3.374 0.5 5.874-1.5 8.25-1.626 2.124-4.499 4-5.875 5.5-0.874 1.126-1 2.499-1 4.625h-5.629c-0.124-0.5-0.25-0.374-0.25-0.75 0-4.876 1.5-6.875 5-9.625 1.874-1.374 3.75-2.874 3.75-5 0-4.502-6.874-5.625-9.75-2.625-0.75 0.75-1.624 2.625-1.75 3.875-0.25-0.124-5.124-0.75-5.75-0.75v-0.125c0-3.126 1.5-5.125 3.5-6.875 1.5-1.5 4.629-2.75 7.629-2.75zM29.012 42.25h6.25v6.25h-6.25z"/>
</svg>